<svg width="140" height="140" viewBox="0 0 140 140" fill="none" xmlns="http://www.w3.org/2000/svg"><path d="M43.799 15L4 132H94.8744L136 15H43.799Z" fill="#FEB6CC"></path><path d="M68.5 60C68.5 69.2079 62.3694 76.5 55 76.5C47.6306 76.5 41.5 69.2079 41.5 60C41.5 50.7921 47.6306 43.5 55 43.5C62.3694 43.5 68.5 50.7921 68.5 60Z" fill="white" stroke="black"></path><path d="M105.5 60C105.5 69.2079 99.3694 76.5 92 76.5C84.6306 76.5 78.5 69.2079 78.5 60C78.5 50.7921 84.6306 43.5 92 43.5C99.3694 43.5 105.5 50.7921 105.5 60Z" fill="white" stroke="black"></path><ellipse cx="59.5" cy="60" rx="9.5" ry="11" fill="black"></ellipse><ellipse cx="96.5" cy="60" rx="9.5" ry="11" fill="black"></ellipse><path d="M41 102H78" stroke="black" stroke-width="2" stroke-linecap="round"></path><path d="M47 112V102H58V112H47Z" fill="white" stroke="black"></path><path d="M62 112V102H73V112H62Z" fill="white" stroke="black"></path><path d="M49.1379 24.88L45 15H60.5172H74.4828H90H113.793H135L116.379 24.88L113.793 15L99.8276 24.88L90 15L77.069 24.88L74.4828 15L65.6897 28L60.5172 15L49.1379 24.88Z" fill="#8D2F50"></path></svg>